<svg width="38" height="38" viewBox="0 0 38 38" fill="none" xmlns="http://www.w3.org/2000/svg"><path d="M0 19C0 8.507 8.507 0 19 0s19 8.507 19 19-8.507 19-19 19S0 29.493 0 19Z" fill="#FCFCFC" fill-opacity=".3"/><path fill-rule="evenodd" clip-rule="evenodd" d="M20.803 14.805a.665.665 0 1 0-.94-.94l-4.668 4.668a.665.665 0 0 0-.003.938l.004.003 4.668 4.668a.665.665 0 1 0 .94-.94l-4.199-4.199 4.198-4.198Z" fill="#FCFCFC"/><path d="M19 36C9.611 36 2 28.389 2 19h-4c0 11.598 9.402 21 21 21v-4Zm17-17c0 9.389-7.611 17-17 17v4c11.598 0 21-9.402 21-21h-4ZM19 2c9.389 0 17 7.611 17 17h4C40 7.402 30.598-2 19-2v4Zm0-4C7.402-2-2 7.402-2 19h4C2 9.611 9.611 2 19 2v-4Z" fill="#FCFCFC"/></svg>